<?xml version="1.0" encoding="UTF-8"?>
<!DOCTYPE svg PUBLIC "-//W3C//DTD SVG 1.1//EN" "http://www.w3.org/Graphics/SVG/1.1/DTD/svg11.dtd">
<!-- Creator: CorelDRAW X7 -->
<svg xmlns="http://www.w3.org/2000/svg" xml:space="preserve" width="48.6277mm" height="46.9288mm" version="1.1" style="shape-rendering:geometricPrecision; text-rendering:geometricPrecision; image-rendering:optimizeQuality; fill-rule:evenodd; clip-rule:evenodd"
viewBox="0 0 3183 3072"
 xmlns:xlink="http://www.w3.org/1999/xlink">
 <defs>
  <style type="text/css">
   <![CDATA[
    .fil0 {fill:#C9CACA}
   ]]>
  </style>
 </defs>
 <g id="Layer_x0020_1">
  <metadata id="CorelCorpID_0Corel-Layer"/>
  <path class="fil0" d="M2600 224c0,0 0,0 0,0 236,198 259,562 52,809 -254,303 -1849,2089 -2221,1776 -301,-190 917,-1964 1363,-2496 207,-247 570,-287 806,-89z"/>
  <path class="fil0" d="M3166 2190c0,0 0,0 0,0 64,210 -58,443 -270,516 -260,90 -1848,585 -1948,252 -104,-230 1262,-860 1718,-1018 212,-73 437,39 500,250z"/>
  <path class="fil0" d="M566 3c0,0 0,0 0,0 -219,-26 -427,134 -462,356 -44,271 -255,1921 90,1962 245,62 628,-1392 704,-1869 36,-221 -114,-424 -332,-449z"/>
 </g>
</svg>
