<svg xmlns="http://www.w3.org/2000/svg" fill="#fbfbfb" viewBox="0 0 48 48" width="48px" height="48px"><path d="M34.25 26c-1.402 0-2.774.123-4.113.348 1.834 4.728 3.224 9.672 4.127 14.785 4.767-2.867 8.252-7.648 9.356-13.286C40.728 26.66 37.565 26 34.25 26zM26.023 24.245c-.535-1.214-1.103-2.411-1.699-3.591C20.165 22.171 15.678 23 11 23c-2.362 0-4.671-.223-6.918-.627C4.039 22.911 4 23.451 4 24c0 5.405 2.164 10.308 5.661 13.911C13.057 31.433 18.932 26.451 26.023 24.245zM27.105 19.505c.659 1.315 1.289 2.647 1.876 4.003C30.688 23.178 32.448 23 34.25 23c3.416 0 6.687.624 9.712 1.758C43.971 24.504 44 24.256 44 24c0-4.98-1.842-9.531-4.864-13.035C35.724 14.524 31.648 17.436 27.105 19.505zM11.985 39.95C15.335 42.48 19.488 44 24 44c2.641 0 5.159-.527 7.469-1.461-.885-5.378-2.338-10.564-4.286-15.505C20.501 29.028 14.994 33.772 11.985 39.95zM37.015 8.845C33.513 5.834 28.97 4 24 4c-2.181 0-4.276.363-6.243 1.011 2.99 3.687 5.662 7.641 7.963 11.829C29.991 14.918 33.82 12.189 37.015 8.845zM4.552 19.41C6.646 19.791 8.798 20 11 20c4.173 0 8.179-.722 11.909-2.033-2.316-4.167-5.001-8.101-8.026-11.746C9.749 8.864 5.911 13.658 4.552 19.41z"/></svg>